<svg width="20" height="31" viewBox="0 0 20 31" fill="none" xmlns="http://www.w3.org/2000/svg">
<path fill-rule="evenodd" clip-rule="evenodd" d="M10.393 0.635058C10.2519 0.679852 9.78224 1.43399 9.61954 1.87677C9.5202 2.14697 9.49296 2.40945 9.51511 2.88214C9.54465 3.51352 9.55061 3.53054 9.97131 4.17763C10.3233 4.71917 10.4042 4.90462 10.4358 5.24268C10.4807 5.72397 10.3248 6.27493 9.97615 6.86642C9.632 7.45043 9.68028 7.6918 10.1412 7.6918C10.3922 7.6918 10.5276 7.58003 10.8025 7.1458C11.1764 6.55557 11.3503 5.91659 11.3143 5.26586C11.2836 4.70924 11.2641 4.65659 10.8489 4.0053L10.4156 3.32555V2.69731C10.4156 2.08729 10.4254 2.05299 10.7531 1.51333C10.9387 1.2077 11.0906 0.932026 11.0906 0.900803C11.0906 0.869579 11.0191 0.787469 10.9317 0.718363C10.7772 0.596108 10.6012 0.568905 10.393 0.635058ZM4.35695 3.27843C3.78736 3.91936 3.49522 4.88446 3.63434 5.66573C3.69024 5.97941 3.81785 6.25332 4.12469 6.71803L4.53943 7.34627L4.53673 7.94309C4.53427 8.49249 4.50981 8.58484 4.22958 9.10533C4.06211 9.41631 3.90822 9.74394 3.88765 9.8334C3.83937 10.0431 4.05401 10.2179 4.32844 10.1924C4.59676 10.1676 4.81498 9.90558 5.14325 9.21427C5.38123 8.71319 5.40418 8.6023 5.40839 7.93694L5.41291 7.20831L4.97752 6.5234C4.58382 5.90402 4.53935 5.79251 4.51291 5.35815C4.47955 4.80995 4.61884 4.34782 4.97808 3.81532C5.197 3.49071 5.20828 3.36287 5.0335 3.18419C4.89279 3.04033 4.52275 3.09191 4.35695 3.27843ZM16.0472 3.36494C15.9334 3.50749 15.747 3.81143 15.633 4.04029C15.4511 4.40549 15.4253 4.54935 15.422 5.21642L15.4183 5.97652L15.855 6.66136L16.2918 7.34627L16.2907 7.94309C16.2899 8.49305 16.266 8.58433 15.9867 9.10533C15.5888 9.84772 15.5674 9.93178 15.7385 10.0813C15.9146 10.2353 16.1871 10.24 16.3565 10.0919C16.5457 9.9265 16.9357 9.21829 17.0797 8.77852C17.2388 8.2929 17.2403 7.55736 17.0831 7.13851C17.016 6.95984 16.8105 6.59427 16.6265 6.32607C16.2965 5.84547 16.2918 5.82951 16.2918 5.21026C16.2918 4.59754 16.3003 4.56776 16.6407 4.00373C16.979 3.44303 16.9856 3.4206 16.8572 3.26555C16.6408 3.00414 16.3018 3.04573 16.0472 3.36494Z" fill="#1B1B1B"/>
<path fill-rule="evenodd" clip-rule="evenodd" d="M1.74175 24.2698L8.33623 29.6161C8.83806 29.9949 9.44968 30.1999 10.0784 30.1999C10.7072 30.1999 11.3188 29.9949 11.8207 29.6161L18.4152 24.2698C18.6441 24.0831 18.827 23.8462 18.9496 23.5774C19.0723 23.3087 19.1314 23.0153 19.1224 22.72V14.4925C19.1443 14.1973 19.1068 13.9007 19.0121 13.6202C18.9174 13.3397 18.7675 13.0811 18.5711 12.8595C18.6566 13.1999 18.64 13.5579 18.5235 13.889C18.407 14.22 18.1957 14.5095 17.9158 14.7213L11.311 20.0676C10.8233 20.4737 10.2087 20.6961 9.574 20.6961C8.93933 20.6961 8.32467 20.4737 7.83693 20.0676L1.2425 14.7213C0.906098 14.461 0.667766 14.0944 0.566388 13.6812L0.399994 14.7213L1.00323 22.7928C1.00838 23.0793 1.07518 23.3614 1.19901 23.6198C1.32285 23.8783 1.50083 24.107 1.72092 24.2906L1.74175 24.2698Z" fill="#1B1B1B"/>
<path fill-rule="evenodd" clip-rule="evenodd" d="M11.3943 16.2712L11.7063 16.0216L14.0778 14.0973C14.181 14.022 14.2649 13.9234 14.3228 13.8096C14.3807 13.6957 14.4108 13.5698 14.4108 13.442C14.4108 13.3143 14.3807 13.1884 14.3228 13.0745C14.2649 12.9607 14.181 12.8621 14.0778 12.7868L10.5726 9.96799C10.3392 9.79083 10.0543 9.69495 9.76128 9.69495C9.46829 9.69495 9.18332 9.79083 8.94995 9.96799L7.98263 10.7481C7.0049 11.549 7.67061 12.5683 8.32589 13.5253C8.58794 13.9215 8.88 14.2971 9.19957 14.6486C9.58442 15.0647 10.843 16.7289 11.3943 16.292V16.2712Z" fill="#E07153"/>
<path fill-rule="evenodd" clip-rule="evenodd" d="M5.21595 14.2951L8.72121 17.1347C8.90509 17.2721 9.12091 17.3604 9.34837 17.3913C9.57584 17.4223 9.80747 17.3948 10.0214 17.3115C10.7807 17.0202 9.91734 16.521 9.54289 16.1777C9.16844 15.8345 8.75239 15.4496 8.50275 15.1376C8.16555 14.7692 7.85611 14.3764 7.57702 13.9622C6.7137 12.7141 7.07778 11.5075 6.11045 12.298L5.25753 12.9845C5.15429 13.0609 5.07042 13.1605 5.01261 13.2752C4.9548 13.3899 4.92468 13.5166 4.92468 13.645C4.92468 13.7734 4.9548 13.9001 5.01261 14.0148C5.07042 14.1295 5.15429 14.2291 5.25753 14.3055L5.21595 14.2951Z" fill="#E07153"/>
</svg>
