<svg width="32" height="32" viewBox="0 0 32 32" fill="none" xmlns="http://www.w3.org/2000/svg">
<path fill-rule="evenodd" clip-rule="evenodd" d="M15.5297 1.73362C15.3072 1.91082 14.8601 2.86447 14.6897 3.52562C14.5134 4.2093 14.4162 5.13939 14.4646 5.67817C14.5335 6.44384 14.6246 6.85055 14.9682 7.92568C15.7132 10.2564 15.9889 11.5264 16.0404 12.8639C16.0677 13.5739 16.0531 13.8891 15.9758 14.2552C15.7113 15.5075 14.9856 16.2288 13.8762 16.342C12.3627 16.4964 11.2172 15.7877 10.6845 14.367C10.5769 14.08 10.4311 13.7954 10.3604 13.7344C10.1681 13.5683 9.77428 13.5889 9.59077 13.7746C9.16884 14.2017 8.8645 16.791 9.05345 18.3468C9.17604 19.3566 9.11975 19.277 9.67596 19.2272C10.9049 19.1171 12.279 19.4366 14.843 20.4286C17.6579 21.5176 19.706 22.0727 22.1295 22.4034C23.5259 22.594 27.2946 22.5431 28.0179 22.324C28.2321 22.2591 28.5058 20.7351 28.5078 19.5969C28.5102 18.2668 28.2139 17.0037 27.6041 15.7445C27.0805 14.663 26.803 14.4097 26.3513 14.6009C26.1397 14.6905 26.0726 14.8059 25.8838 15.4056C25.7305 15.8923 25.4021 16.4665 25.022 16.9125C24.4239 17.6143 23.4667 17.8376 22.6611 17.4632C21.9811 17.1471 21.6852 16.746 21.5583 15.9677C21.4605 15.3685 21.548 14.5619 21.9067 12.757C22.5763 9.3872 22.626 8.71985 22.2847 7.6863C22.0909 7.09916 21.8739 6.84941 21.5577 6.84941C21.2785 6.84941 21.1616 6.93855 20.9552 7.30878C20.7203 7.73011 20.339 8.08199 19.8854 8.29598C19.5886 8.43603 19.4462 8.46192 18.971 8.46249C18.4706 8.46312 18.363 8.44147 18.0015 8.26756C16.6904 7.6368 16.24 6.18231 16.3968 3.08637L16.4544 1.95071L16.2575 1.77268C16.0184 1.55648 15.7691 1.54305 15.5297 1.73362ZM0.474054 18.9456C0.051376 19.1716 -0.121685 19.7318 0.091092 20.1857C0.277225 20.5827 1.7212 21.8154 2.84657 22.5378C3.60605 23.0254 4.68213 23.5873 4.73504 23.5238C4.76044 23.4933 4.83205 23.2974 4.89416 23.0885C4.9562 22.8796 5.10456 22.4998 5.22383 22.2444C5.34304 21.9891 5.43123 21.7729 5.41972 21.7639C5.40821 21.7549 5.11763 21.5991 4.77395 21.4177C3.89963 20.9561 3.04633 20.361 2.23538 19.6471C1.85385 19.3114 1.4667 18.9869 1.37501 18.9262C1.15629 18.7813 0.765763 18.7897 0.474054 18.9456ZM9.44267 20.4654C8.27445 20.6205 7.27999 21.2364 6.66017 22.1884C6.00695 23.1918 5.7766 24.0412 5.82364 25.2727C5.87248 26.5498 6.18665 27.2936 7.05621 28.1913C8.41749 29.5966 10.6919 30.4358 14.1863 30.8222C15.3917 30.9555 18.1186 30.9727 19.0335 30.8528C23.6937 30.2421 27.6834 28.255 30.8264 24.9791C31.9851 23.7714 32.1274 23.5305 31.9207 23.1259C31.7445 22.7809 31.5606 22.7656 30.5933 23.0159C29.5419 23.2879 28.3368 23.5233 27.4145 23.6369C26.3324 23.7702 23.0058 23.7515 21.9419 23.6064C19.3909 23.2582 17.0035 22.5962 14.038 21.4147C12.0794 20.6344 10.5493 20.3183 9.44267 20.4654ZM8.05123 23.7186C8.14786 23.7692 8.26344 23.8998 8.30804 24.0088C8.37684 24.1769 8.3734 24.2578 8.28559 24.5397C7.97067 25.5511 8.38916 26.4155 9.51816 27.0855C10.7582 27.8213 12.9023 28.3345 15.3372 28.4781C15.719 28.5006 16.1079 28.5581 16.2015 28.6059C16.5442 28.7809 16.6024 29.1922 16.3308 29.5189L16.1613 29.7229L15.3145 29.6831C13.058 29.5772 10.8861 29.0965 9.40164 28.3747C8.29703 27.8375 7.62699 27.2157 7.21876 26.349C7.03538 25.9596 7.02493 25.8965 7.02493 25.1777C7.02493 24.494 7.04057 24.3864 7.1813 24.1015C7.40139 23.6559 7.68935 23.5292 8.05123 23.7186Z" fill="#1B1B1B"/>
<path fill-rule="evenodd" clip-rule="evenodd" d="M0.474054 18.9457C0.051376 19.1717 -0.121685 19.7319 0.091092 20.1858C0.277225 20.5829 1.7212 21.8155 2.84657 22.538C3.60605 23.0255 4.68213 23.5874 4.73504 23.524C4.76044 23.4934 4.83205 23.2976 4.89416 23.0886C4.9562 22.8797 5.10456 22.4999 5.22383 22.2446C5.34304 21.9892 5.43123 21.773 5.41972 21.7641C5.40821 21.7551 5.11763 21.5993 4.77395 21.4178C3.89963 20.9562 3.04633 20.3611 2.23538 19.6473C1.85385 19.3115 1.4667 18.9871 1.37501 18.9263C1.15629 18.7814 0.765763 18.7899 0.474054 18.9457ZM9.44267 20.4655C8.27445 20.6207 7.27999 21.2365 6.66017 22.1885C6.00695 23.192 5.7766 24.0413 5.82364 25.2728C5.87248 26.5499 6.18665 27.2938 7.05621 28.1914C8.41749 29.5967 10.6919 30.436 14.1863 30.8224C15.3917 30.9556 18.1186 30.9729 19.0335 30.8529C23.6937 30.2423 27.6834 28.2551 30.8264 24.9793C31.9851 23.7715 32.1274 23.5306 31.9207 23.126C31.7445 22.781 31.5606 22.7657 30.5933 23.016C29.5419 23.2881 28.3368 23.5234 27.4145 23.637C26.3324 23.7703 23.0058 23.7517 21.9419 23.6065C19.3909 23.2583 17.0035 22.5963 14.038 21.4148C12.0794 20.6345 10.5493 20.3184 9.44267 20.4655ZM8.05123 23.7188C8.14786 23.7693 8.26344 23.9 8.30804 24.009C8.37684 24.177 8.3734 24.2579 8.28559 24.5398C7.97067 25.5512 8.38916 26.4156 9.51816 27.0856C10.7582 27.8215 12.9023 28.3346 15.3372 28.4782C15.719 28.5007 16.1079 28.5583 16.2015 28.6061C16.5442 28.781 16.6024 29.1923 16.3308 29.519L16.1613 29.723L15.3145 29.6833C13.058 29.5773 10.8861 29.0967 9.40164 28.3748C8.29703 27.8376 7.62699 27.2158 7.21876 26.3491C7.03538 25.9598 7.02493 25.8966 7.02493 25.1779C7.02493 24.4941 7.04057 24.3865 7.1813 24.1016C7.40139 23.6561 7.68935 23.5293 8.05123 23.7188Z" fill="#E07153"/>
</svg>
