<svg width="24" height="24" viewBox="0 0 24 24" fill="none" xmlns="http://www.w3.org/2000/svg">
<circle cx="12" cy="12" r="12" fill="#E07153"/>
<path d="M8.56544 16L13.7854 7.6H15.1054L9.88544 16H8.56544ZM15.4774 15.58C15.1254 15.94 14.6614 16.12 14.0854 16.12C13.5094 16.12 13.0454 15.94 12.6934 15.58C12.3414 15.22 12.1654 14.74 12.1654 14.14C12.1654 13.54 12.3414 13.06 12.6934 12.7C13.0454 12.34 13.5094 12.16 14.0854 12.16C14.6614 12.16 15.1254 12.34 15.4774 12.7C15.8294 13.06 16.0054 13.54 16.0054 14.14C16.0054 14.74 15.8294 15.22 15.4774 15.58ZM13.4734 14.848C13.6334 15.016 13.8374 15.1 14.0854 15.1C14.3334 15.1 14.5334 15.016 14.6854 14.848C14.8454 14.672 14.9254 14.436 14.9254 14.14C14.9254 13.844 14.8454 13.612 14.6854 13.444C14.5334 13.268 14.3334 13.18 14.0854 13.18C13.8374 13.18 13.6334 13.268 13.4734 13.444C13.3214 13.612 13.2454 13.844 13.2454 14.14C13.2454 14.436 13.3214 14.672 13.4734 14.848ZM10.9774 10.9C10.6254 11.26 10.1614 11.44 9.58544 11.44C9.00944 11.44 8.54544 11.26 8.19344 10.9C7.84144 10.54 7.66544 10.06 7.66544 9.46C7.66544 8.86 7.84144 8.38 8.19344 8.02C8.54544 7.66 9.00944 7.48 9.58544 7.48C10.1614 7.48 10.6254 7.66 10.9774 8.02C11.3294 8.38 11.5054 8.86 11.5054 9.46C11.5054 10.06 11.3294 10.54 10.9774 10.9ZM8.97344 10.168C9.13344 10.336 9.33744 10.42 9.58544 10.42C9.83344 10.42 10.0334 10.336 10.1854 10.168C10.3454 9.992 10.4254 9.756 10.4254 9.46C10.4254 9.164 10.3454 8.932 10.1854 8.764C10.0334 8.588 9.83344 8.5 9.58544 8.5C9.33744 8.5 9.13344 8.588 8.97344 8.764C8.82144 8.932 8.74544 9.164 8.74544 9.46C8.74544 9.756 8.82144 9.992 8.97344 10.168Z" fill="white"/>
</svg>
