<svg width="32" height="32" viewBox="0 0 32 32" fill="none" xmlns="http://www.w3.org/2000/svg">
<path fill-rule="evenodd" clip-rule="evenodd" d="M0.240781 12.9885C0.240781 13.4928 1.02434 14.3665 1.47466 14.3395L7.96828 13.9342C6.81546 12.7183 6.21207 9.07967 6.21207 7.35043L0.36683 10.8179C-0.3717 11.2502 0.231774 12.0518 0.240781 12.9885Z" fill="#E07153"/>
<path fill-rule="evenodd" clip-rule="evenodd" d="M13.2101 4.01802C9.40941 4.50437 8.24758 5.81931 7.3019 6.89108C7.11222 9.24924 7.60297 11.6123 8.71592 13.6999L9.94981 13.5559L9.7877 9.05262C9.36439 6.21559 12.1294 4.34225 13.2101 4V4.01802Z" fill="#E07153"/>
<path fill-rule="evenodd" clip-rule="evenodd" d="M21.2977 7.70163C22.5496 8.75539 23.5583 9.98027 24.8102 11.043C21.6219 12.8984 20.8384 12.9524 19.0731 16.9242L17.6681 15.8795C17.6681 11.8446 17.3979 9.57497 21.2707 7.77368L21.2977 7.70163Z" fill="#E07153"/>
<path fill-rule="evenodd" clip-rule="evenodd" d="M25.576 11.8086C26.5306 12.4493 27.3432 13.2798 27.963 14.2482C28.5828 15.2167 28.9966 16.3023 29.1785 17.4376C27.044 18.3383 23.7746 21.4365 22.7839 20.1396L19.8298 17.987C21.6311 13.6279 24.0178 12.8983 25.5939 11.8446L25.576 11.8086Z" fill="#E07153"/>
<path fill-rule="evenodd" clip-rule="evenodd" d="M22.3877 7.41347L25.7831 10.5297L29.6919 9.53899C29.1065 8.89053 28.1879 6.68394 22.3877 7.41347Z" fill="#E07153"/>
<path fill-rule="evenodd" clip-rule="evenodd" d="M30.4485 10.3856L26.7738 11.2863C28.4526 12.6889 29.5635 14.6545 29.8991 16.8162C32.601 15.9156 32.601 12.8624 30.4485 10.3856Z" fill="#E07153"/>
<path fill-rule="evenodd" clip-rule="evenodd" d="M16.3714 4.08106H16.9118C20.6855 3.97298 23.0362 4.83761 24.2521 6.43175C23.5241 6.36404 22.7915 6.36404 22.0635 6.43175C20.6416 6.60307 19.3314 7.28811 18.3793 8.35798C17.4272 9.42784 16.8989 10.8088 16.8938 12.2409V24.7419C16.8813 25.0793 16.9459 25.415 17.0829 25.7236L23.6666 26.8944C23.8537 26.9303 24.0436 26.9484 24.2341 26.9485C25.6212 26.9312 26.9574 26.4233 28.0059 25.515C29.0544 24.6066 29.7474 23.3564 29.9622 21.9859C29.9817 21.7672 29.9817 21.5472 29.9622 21.3284V18.7256C29.9712 18.5546 29.9712 18.3832 29.9622 18.2122L31.2321 17.3116C31.3329 17.7822 31.3842 18.2622 31.3852 18.7436V21.2834C31.3836 21.585 31.3595 21.886 31.3132 22.184C31.1233 23.9282 30.2917 25.5394 28.98 26.7045C27.6684 27.8697 25.9704 28.5056 24.2161 28.4886C23.9534 28.4853 23.6914 28.4612 23.4325 28.4165L10.0219 26.0208C8.5966 25.7299 7.33301 24.9132 6.48236 23.7332C5.54647 22.5092 5.03434 21.0138 5.02332 19.4731V15.186L6.41029 15.114V19.4821C6.41995 20.6668 6.81868 21.8155 7.54511 22.7515C8.18665 23.6709 9.15163 24.3142 10.2471 24.5528L11.8772 24.841C11.135 23.8309 10.7372 22.6089 10.7424 21.3554V8.79145C10.7424 5.81932 13.7235 4.08106 16.3624 4.08106H16.3714Z" fill="#1B1B1B"/>
</svg>
