<svg width="50" height="64" viewBox="0 0 50 64" fill="none" xmlns="http://www.w3.org/2000/svg">
<g opacity="0.3">
<path opacity="0.3" d="M25.9841 64C38.0428 64 47.8183 63.0113 47.8183 61.7918C47.8183 60.5723 38.0428 59.5836 25.9841 59.5836C13.9255 59.5836 4.15002 60.5723 4.15002 61.7918C4.15002 63.0113 13.9255 64 25.9841 64Z" fill="#1B1B1B"/>
</g>
<path d="M32.6127 58.3464L32.2503 60.8502H28.0493C27.4704 60.8502 27.0739 60.3155 27.1736 59.7807C27.1882 59.6969 27.215 59.6131 27.2563 59.5342C27.5823 58.8886 28.1661 58.3809 29.0053 58.3217L28.9786 58.3143L28.2829 54.7163C28.2829 54.7163 29.5794 54.1322 30.9075 54.5388C31.4257 54.6966 31.9462 55.0046 32.3987 55.5566L32.6127 58.3464Z" fill="white"/>
<path d="M32.3062 60.9169H28.0494C27.7648 60.9169 27.4972 60.7912 27.3172 60.5694C27.1348 60.3452 27.0594 60.0544 27.1129 59.7685C27.1299 59.6748 27.1591 59.5861 27.2029 59.5048C27.5653 58.7852 28.1686 58.3489 28.908 58.2676L28.2148 54.6818L28.261 54.6596C28.3145 54.635 29.5964 54.0706 30.9319 54.4797C31.5254 54.6596 32.0362 55.0096 32.4522 55.5173L32.4643 55.5321L32.6808 58.3465V58.3539L32.3062 60.9169ZM29.037 58.2627L29.4164 58.3588L29.0126 58.3859C28.2756 58.4352 27.6723 58.8542 27.3172 59.5615C27.2807 59.6329 27.254 59.7093 27.2394 59.7907C27.1931 60.0371 27.2588 60.2885 27.4169 60.4832C27.575 60.6779 27.8013 60.7838 28.0494 60.7838H32.1943L32.5495 58.3416L32.3378 55.5813C31.9414 55.1008 31.4549 54.7705 30.893 54.6005C29.7448 54.2481 28.6016 54.6572 28.3583 54.7558L29.037 58.2627Z" fill="#1B1B1B"/>
<path d="M39.5453 54.0091L39.1148 59.978C39.0734 60.5571 38.5967 61.0056 38.025 61.0056H32.7952C32.1359 61.0056 31.6324 60.3994 31.7516 59.7439C31.7905 59.5393 31.8538 59.3446 31.9413 59.1598C32.423 58.1567 33.6271 57.5431 35.2033 58.0582L34.9114 55.3202C34.9114 55.3202 34.8093 51.8847 38.0615 53.2106C38.4969 53.388 38.9883 53.6468 39.5453 54.0091Z" fill="white"/>
<path d="M38.025 61.0722H32.7952C32.4595 61.0722 32.1433 60.9219 31.9292 60.6607C31.7176 60.4019 31.63 60.0643 31.6908 59.7365C31.7298 59.5245 31.7954 59.3224 31.8854 59.1376C32.3379 58.1986 33.5103 57.4839 35.1304 57.9743L34.8482 55.3349C34.8458 55.2683 34.8117 53.7945 35.7336 53.1439C36.2955 52.7471 37.0885 52.7496 38.0883 53.1562C38.5383 53.3386 39.0394 53.6072 39.5794 53.9572L39.611 53.9769L39.6086 54.0163L39.178 59.9854C39.1367 60.5941 38.6307 61.0722 38.025 61.0722ZM34.0941 57.9349C33.0165 57.9349 32.3111 58.5461 32.0022 59.1894C31.9171 59.3643 31.8563 59.5566 31.8173 59.7562C31.7638 60.047 31.8417 60.3452 32.029 60.5744C32.2187 60.8061 32.4984 60.9392 32.7976 60.9392H38.0275C38.565 60.9392 39.0151 60.5153 39.054 59.9706L39.4821 54.041C38.9615 53.7058 38.4775 53.447 38.0445 53.2721C37.0885 52.8827 36.3369 52.8728 35.8115 53.245C34.9479 53.8537 34.982 55.3053 34.982 55.3201L35.2836 58.1518L35.1888 58.1198C34.7874 57.9916 34.4225 57.9349 34.0941 57.9349Z" fill="#1B1B1B"/>
<path d="M35.3809 57.7082C35.5293 57.7156 35.6728 57.7673 35.809 57.8388C35.9452 57.9103 36.0693 58.0064 36.1812 58.1123C36.4074 58.3267 36.5874 58.5855 36.6847 58.8837C36.6945 58.9157 36.6774 58.9527 36.6458 58.9625C36.6337 58.9675 36.6215 58.9675 36.6093 58.9625H36.6069C36.4585 58.9207 36.3271 58.8714 36.1982 58.8319C36.0693 58.79 35.9452 58.7506 35.8236 58.7186C35.702 58.6841 35.5828 58.6545 35.4709 58.6151C35.3566 58.5732 35.2447 58.5288 35.1352 58.45L35.1255 58.4426C34.9479 58.3119 34.9065 58.0581 35.0379 57.8758C35.1182 57.7599 35.252 57.7033 35.3809 57.7082Z" fill="#1B1B1B"/>
<path d="M38.025 61.4615H32.7975C32.3451 61.4615 31.9218 61.2594 31.6324 60.907C31.3478 60.5595 31.231 60.1036 31.3113 59.66C31.4524 58.8984 31.9048 58.233 32.5543 57.8363C33.3059 57.3754 34.2741 57.2916 35.2738 57.6046C35.5122 57.6785 35.6436 57.9324 35.5706 58.1739C35.4976 58.4154 35.2471 58.5485 35.0087 58.4746C34.043 58.1739 33.3935 58.3858 33.0165 58.615C32.581 58.8812 32.2867 59.3125 32.1918 59.8276C32.1578 60.0075 32.204 60.1824 32.3208 60.3254C32.4375 60.4683 32.6102 60.5496 32.7927 60.5496H38.0201C38.3558 60.5496 38.638 60.2835 38.6623 59.9434L39.0929 53.9744C39.1099 53.723 39.3288 53.5357 39.5745 53.553C39.8226 53.5702 40.0075 53.7896 39.9905 54.041L39.5599 60.0099C39.5064 60.8257 38.8302 61.4615 38.025 61.4615Z" fill="#1B1B1B"/>
<path d="M35.2057 58.5166C34.9795 58.5166 34.7849 58.3441 34.7606 58.11L34.4687 55.3719C34.4419 55.123 34.6195 54.8963 34.8676 54.8692C35.1133 54.842 35.3371 55.022 35.3638 55.2733L35.6557 58.0114C35.6825 58.2603 35.5049 58.487 35.2568 58.5141C35.2374 58.5166 35.2228 58.5166 35.2057 58.5166Z" fill="#1B1B1B"/>
<path d="M32.6127 58.8024C32.3792 58.8024 32.1821 58.62 32.1651 58.3809L31.9535 55.5935C31.934 55.3421 32.1189 55.1228 32.367 55.1056C32.6151 55.0858 32.8316 55.2731 32.8511 55.5245L33.0627 58.3119C33.0822 58.5633 32.8973 58.7826 32.6492 58.7999C32.637 58.8024 32.6248 58.8024 32.6127 58.8024Z" fill="#1B1B1B"/>
<path d="M29.1659 57.9275C29.3167 57.8856 29.4699 57.8979 29.6159 57.9275C29.7618 57.9571 29.9005 58.0187 30.0294 58.0877C30.1583 58.1591 30.2799 58.2405 30.3918 58.3341C30.5037 58.4302 30.6059 58.5337 30.6935 58.6569C30.7129 58.6865 30.708 58.7259 30.6789 58.7456C30.6691 58.753 30.6594 58.7555 30.6472 58.758C30.4989 58.7678 30.3626 58.7678 30.2289 58.7678H29.847C29.7253 58.7678 29.6061 58.7727 29.4943 58.7653C29.3824 58.758 29.2753 58.7481 29.1659 58.7062L29.1294 58.6914C28.9226 58.615 28.818 58.3834 28.8959 58.1739C28.9421 58.0483 29.0467 57.9595 29.1659 57.9275Z" fill="#1B1B1B"/>
<path d="M32.2502 61.3062H28.0493C27.5799 61.3062 27.1517 61.0647 26.9085 60.6581C26.6628 60.2515 26.6434 59.7512 26.8574 59.3249C27.3026 58.4426 28.0931 57.9103 29.0296 57.8635C29.2777 57.8511 29.4893 58.0458 29.5015 58.2972C29.5137 58.5486 29.3215 58.763 29.0734 58.7753C28.2853 58.8147 27.8693 59.3224 27.6577 59.7413C27.5555 59.9459 27.6358 60.1184 27.6747 60.1849C27.7136 60.249 27.828 60.3969 28.0493 60.3969H32.2502C32.4983 60.3969 32.7002 60.6014 32.7002 60.8528C32.6978 61.1042 32.4983 61.3062 32.2502 61.3062Z" fill="#1B1B1B"/>
<path d="M28.981 58.7729C28.7694 58.7729 28.5821 58.6225 28.5407 58.4057L27.845 54.8075C27.7963 54.5611 27.9569 54.322 28.2002 54.2727C28.4434 54.2234 28.6794 54.3861 28.728 54.6325L29.4237 58.2307C29.4724 58.4771 29.3118 58.7162 29.0686 58.7655C29.0394 58.7704 29.0102 58.7729 28.981 58.7729Z" fill="#1B1B1B"/>
<g opacity="0.3">
<path opacity="0.3" d="M32.6127 58.344C32.1578 58.6841 31.8586 59.1843 31.754 59.7438C31.6713 60.1997 31.8878 60.631 32.2478 60.8503H28.0469C27.468 60.8503 27.0715 60.3155 27.1712 59.7807C27.3536 59.6649 27.5069 59.5836 27.5069 59.5836C28.8423 60.0765 29.8932 59.6846 30.7494 58.6791L30.9124 56.8407C29.8688 56.6287 29.465 55.3226 29.465 55.3226L29.6694 55.2117L29.9491 55.0614L30.5426 54.7385C31.1046 56.02 31.8684 56.0644 32.3962 55.5592L32.6127 58.344Z" fill="#1B1B1B"/>
</g>
<path d="M24.4784 60.3993H20.2216C19.6524 60.3993 19.1805 59.9483 19.1488 59.3717L18.9786 56.333L18.8618 54.2727L22.7562 54.2678L22.7197 55.4606L22.6589 57.4938C24.0868 57.0576 25.2301 58.0261 25.4052 59.3421C25.483 59.904 25.0379 60.3993 24.4784 60.3993Z" fill="#E07153"/>
<g opacity="0.55">
<g opacity="0.55">
<path opacity="0.55" d="M18.9713 54.2752L22.8657 54.2703V54.2727L19.7569 54.2752L19.8713 56.3354L20.0415 59.3741C20.0732 59.9483 20.5451 60.4017 21.1143 60.4017H20.3261C19.7569 60.4017 19.285 59.9507 19.2534 59.3741L19.0831 56.3354L18.9713 54.2752Z" fill="white"/>
</g>
</g>
<path d="M16.1836 61.0081H11.9292C11.36 61.0081 10.8881 60.5571 10.8564 59.9804L10.6667 56.6114L10.5694 54.8813L14.4638 54.8763L14.4103 56.6607L14.3665 58.1024C15.7944 57.6662 16.9377 58.6348 17.1128 59.9508C17.1907 60.5127 16.7431 61.0081 16.1836 61.0081Z" fill="#E07153"/>
<g opacity="0.55">
<g opacity="0.55">
<path opacity="0.55" d="M16.6871 60.8603C16.5412 60.9515 16.3709 61.0082 16.186 61.0082H11.9292C11.36 61.0082 10.8881 60.5572 10.8564 59.9805L10.6667 56.6116L10.5694 54.8815L11.5083 54.879L11.5959 56.4637L11.7856 59.8326C11.8173 60.4069 12.2867 60.8603 12.8584 60.8603H16.6871Z" fill="white"/>
</g>
</g>
<path d="M22.7319 57.8808C22.5543 57.9769 22.4278 58.0015 22.3086 58.0311C22.1894 58.0582 22.0727 58.0779 21.9486 58.1124C21.8246 58.1444 21.6981 58.1937 21.5667 58.2504C21.4305 58.3046 21.2991 58.3736 21.1459 58.4402H21.1434C21.1118 58.4525 21.0778 58.4377 21.0632 58.4081C21.0583 58.3958 21.0583 58.381 21.0607 58.3687C21.1459 58.0434 21.3283 57.7452 21.5959 57.5037C21.7297 57.3854 21.8878 57.2819 22.0532 57.2228C22.2162 57.1611 22.384 57.1291 22.4935 57.139L22.5762 57.1464C22.7903 57.1636 22.9484 57.3534 22.9313 57.5678C22.9241 57.7033 22.8413 57.8191 22.7319 57.8808Z" fill="#1B1B1B"/>
<path d="M24.4784 60.8553H20.2215C19.4139 60.8553 18.745 60.2146 18.6988 59.3988L18.4142 54.2999C18.3996 54.0485 18.5893 53.8341 18.8374 53.8193C19.0831 53.8045 19.2972 53.9967 19.3118 54.2481L19.5964 59.3471C19.6158 59.6822 19.8883 59.9435 20.2215 59.9435H24.476C24.6195 59.9435 24.7557 59.8819 24.8506 59.771C24.9406 59.6675 24.9795 59.5344 24.9625 59.4013C24.8895 58.8542 24.6146 58.381 24.206 58.1025C23.8241 57.8438 23.3643 57.7747 22.873 57.9029C22.6321 57.967 22.3865 57.8191 22.3256 57.5776C22.2624 57.3336 22.4083 57.0847 22.6467 57.0231C23.3838 56.8284 24.116 56.9442 24.7071 57.3484C25.3274 57.7723 25.7457 58.4746 25.8528 59.2805C25.9039 59.6724 25.7871 60.0692 25.5268 60.3698C25.2617 60.6779 24.8798 60.8553 24.4784 60.8553Z" fill="#1B1B1B"/>
<path d="M22.6613 57.9497C22.6565 57.9497 22.6516 57.9497 22.6467 57.9497C22.3986 57.9423 22.204 57.7328 22.2113 57.4814L22.3086 54.2578C22.3159 54.0064 22.5275 53.8068 22.7708 53.8166C23.0189 53.824 23.2135 54.0335 23.2062 54.2849L23.1089 57.5086C23.1041 57.755 22.9046 57.9497 22.6613 57.9497Z" fill="#1B1B1B"/>
<path d="M47.7234 15.3635C49.2656 15.7874 49.2656 17.2834 47.4655 17.7393C49.5526 18.6511 49.3556 20.1471 47.1128 20.8618C48.9372 21.6677 49.1683 23.659 47.0496 24.1149C48.582 25.2165 48.6866 26.9786 46.7917 27.4C46.7917 27.4 49.7132 28.896 46.2468 30.5891C47.502 31.4393 47.6917 32.4843 46.3441 33.8101C47.6699 34.8699 47.7477 35.8852 46.152 36.8365C47.845 37.4157 47.8207 39.2123 46.0887 39.8284C47.3755 40.893 47.1493 41.9331 45.6703 42.9509C46.8306 44.2078 46.5436 45.127 45.3809 45.8466C46.405 47.4412 45.9866 48.4269 44.4492 48.9371C45.8722 50.9654 44.1671 52.7595 42.8754 51.8329C43.1965 53.7428 41.6786 54.4403 40.0488 53.1119C39.5769 54.8814 37.1931 55.1377 36.2809 54.11C35.3079 55.5591 34.1914 55.845 32.8973 54.7114C32.5178 55.9362 31.2456 56.5918 30.4575 54.5216C29.6937 55.7366 28.1636 55.4778 28.2098 54.2382C27.5044 54.9036 26.1033 54.8839 25.899 54.0213C25.8284 53.733 25.8941 53.3534 26.1617 52.8729C25.8746 44.7426 26.3855 36.176 27.5409 27.2571C28.5066 19.7922 29.9248 12.0809 31.7005 4.17235C31.7297 4.12553 31.7589 4.0787 31.7905 4.03434C32.2332 3.40343 32.9216 2.99187 33.6684 3.12002C34.0722 3.18903 34.4906 3.41576 34.8992 3.8495C35.5195 2.66902 37.7039 2.462 38.1953 4.11074C39.3045 3.08059 41.8781 2.91793 42.1335 5.56478C43.1259 3.7805 45.3541 5.78658 44.3908 7.38603C45.7312 6.65408 46.8112 7.51172 46.0085 8.80557C48.1734 8.23134 49.4018 10.5406 48.3096 12.103C50.0659 13.1504 50.0342 14.6464 47.7234 15.3635Z" fill="white"/>
<path d="M46.2784 8.09566C46.1373 7.9823 45.9817 7.8714 45.8065 7.76543C45.899 7.63234 45.9744 7.4968 46.0327 7.35632C46.2201 7.52884 46.3149 7.78514 46.2784 8.09566Z" fill="white"/>
<path d="M46.3271 8.21893L46.2371 8.145C46.1009 8.0341 45.9428 7.92319 45.7725 7.82215L45.7117 7.78518L45.7531 7.7285C45.8431 7.60035 45.916 7.4648 45.9744 7.33172L46.0109 7.24792L46.0766 7.30954C46.2858 7.50177 46.3806 7.78518 46.3417 8.10557L46.3271 8.21893ZM45.8966 7.74575C46.0133 7.81722 46.1204 7.89116 46.2201 7.96755C46.2201 7.77286 46.1617 7.60281 46.0523 7.46973C46.0085 7.56338 45.955 7.65456 45.8966 7.74575Z" fill="#1B1B1B"/>
<g opacity="0.3">
<path opacity="0.3" d="M47.7234 15.3635C49.2656 15.7873 49.2656 17.2833 47.4656 17.7392C49.5527 18.6511 49.3556 20.147 47.1129 20.8617C48.9372 21.6676 49.1683 23.6589 47.0496 24.1148C48.5821 25.2164 48.6867 26.9785 46.7918 27.3999C46.7918 27.3999 49.7132 28.8959 46.2469 30.589C47.5021 31.4392 47.6918 32.4841 46.3442 33.81C47.6699 34.8698 47.7477 35.8851 46.152 36.8364C47.845 37.4156 47.8207 39.2122 46.0888 39.8283C47.3756 40.8929 47.1493 41.9329 45.6704 42.9508C46.8307 44.2076 46.5437 45.1269 45.3809 45.8465C46.405 47.441 45.9866 48.4268 44.4493 48.937C45.8723 50.9652 44.1671 52.7594 42.8754 51.8327C43.1965 53.7427 41.6786 54.4401 40.0489 53.1118C39.577 54.8813 37.1931 55.1376 36.2809 54.1099C35.3079 55.559 34.1914 55.8449 32.8973 54.7112C32.7903 55.0538 32.6151 55.352 32.3986 55.559C31.8732 56.0618 31.107 56.0174 30.5451 54.7383C30.5135 54.6693 30.4843 54.5979 30.4575 54.5215C30.3116 54.7556 30.1364 54.933 29.9516 55.0612L29.6718 55.2115C28.9494 55.5097 28.1758 55.1253 28.2099 54.2405C27.5044 54.9059 26.1033 54.8862 25.899 54.0237C25.8941 54.0064 25.8917 53.9891 25.8868 53.9694C25.8552 53.7871 25.8747 53.5702 25.9598 53.3163C25.972 53.2769 25.989 53.2375 26.0036 53.1981C26.0449 53.0945 26.0985 52.9861 26.1593 52.8727C28.6866 51.4433 30.1243 49.0799 29.5794 45.26C27.5726 33.5882 28.4896 22.3133 32.1797 11.4129C32.8535 9.42653 32.8827 7.25533 32.1822 5.27882C32.0435 4.88944 31.8854 4.51977 31.7005 4.17228C31.7297 4.12545 31.7589 4.07863 31.7905 4.03427C32.2332 3.40336 32.9216 2.99179 33.6684 3.11995C34.1549 3.74346 34.5392 4.46801 34.8263 5.28129C35.5293 7.26026 35.4977 9.429 34.8239 11.4154C33.7365 14.629 32.89 17.8723 32.2892 21.15C32.2892 21.15 32.2892 21.1525 32.2868 21.1599C32.26 21.4162 31.2286 28.6938 34.0333 29.4824L30.6399 29.0092C30.5767 29.2138 30.5281 29.3395 30.4843 29.4085L31.3016 29.2803C30.9902 34.5247 31.2919 39.8529 32.2235 45.2649C32.5689 47.6727 32.1238 49.5013 31.1167 50.8814C32.1067 51.362 32.9873 50.9529 33.773 49.7798C34.6852 50.8075 37.0691 50.5512 37.541 48.7817C39.1707 50.1101 40.6886 49.4126 40.3675 47.5027C41.6592 48.4293 43.3644 46.6352 41.9414 44.6069C43.4787 44.0943 43.8971 43.111 42.873 41.5164C44.0357 40.7968 44.3228 39.8776 43.1625 38.6207C44.639 37.6029 44.8677 36.5629 43.5809 35.4982C45.3152 34.8796 45.3396 33.0855 43.6441 32.5063C45.2398 31.555 45.1644 30.5421 43.8363 29.48C45.1839 28.1541 44.9942 27.1091 43.739 26.2589C47.2077 24.5683 44.2839 23.0699 44.2839 23.0699C46.1788 22.646 46.0742 20.8863 44.5417 19.7847C46.6604 19.3288 46.4318 17.3375 44.6049 16.5316C46.8477 15.8169 47.0448 14.3185 44.9577 13.4091C46.7553 12.9532 46.7553 11.4573 45.2155 11.0334C46.8842 10.5158 47.3658 9.59165 46.8429 8.72416C48.4653 8.84985 49.251 10.7573 48.3097 12.103C50.0659 13.1504 50.0343 14.6463 47.7234 15.3635Z" fill="#1B1B1B"/>
</g>
<g opacity="0.3">
<path opacity="0.3" d="M29.9515 55.0614C29.8615 55.123 29.7667 55.1748 29.6718 55.2118L29.9515 55.0614Z" fill="black"/>
<path opacity="0.3" d="M29.6961 55.2708L29.6426 55.1525L29.9223 55.0022L29.988 55.1131C29.8907 55.1796 29.7934 55.2339 29.6961 55.2708Z" fill="#1B1B1B"/>
</g>
<g opacity="0.3">
<path opacity="0.3" d="M32.107 22.2C32.102 22.2246 32.0995 22.2443 32.0945 22.2665C32.097 22.2369 32.1045 22.2147 32.107 22.2Z" fill="black"/>
<path opacity="0.3" d="M32.1586 22.2788L32.0313 22.2591C32.0338 22.2344 32.0387 22.2123 32.0411 22.1975L32.0435 22.1876L32.1708 22.2098L32.1586 22.2788Z" fill="#1B1B1B"/>
</g>
<path d="M46.8453 8.71925C46.5874 8.69707 46.3076 8.72172 46.0109 8.80058C46.169 8.54674 46.2541 8.30521 46.2785 8.09326C46.5266 8.29535 46.7163 8.50484 46.8453 8.71925Z" fill="white"/>
<path d="M45.8698 8.90656L45.9574 8.76609C46.1058 8.5295 46.1909 8.30031 46.2152 8.08836L46.2274 7.97253L46.3174 8.04647C46.5704 8.24855 46.765 8.46542 46.8988 8.68722L46.9644 8.79566L46.8379 8.7858C46.5801 8.76362 46.3077 8.79073 46.0255 8.86466L45.8698 8.90656ZM46.3247 8.21651C46.2931 8.37424 46.2323 8.53689 46.1423 8.70201C46.3393 8.66011 46.5339 8.64286 46.7212 8.64533C46.6166 8.49993 46.4852 8.35699 46.3247 8.21651Z" fill="#1B1B1B"/>
<path d="M32.1797 11.4129C28.4896 22.3133 27.5726 33.5883 29.5794 45.2601C30.9562 54.8962 19.7107 55.2708 10.1997 54.7187C10.0659 54.7113 9.93209 54.7039 9.79831 54.6941C6.37335 54.4107 4.04302 53.4347 3.24759 49.945C0.912397 37.3146 0.357788 24.1789 4.08194 11.753C6.01577 5.30105 11.5205 3.45762 17.8401 1.74974C17.8426 1.74974 17.845 1.74727 17.8474 1.74727C18.6623 1.52547 19.4942 1.3086 20.331 1.08186C26.9206 -0.611231 30.747 1.24205 32.1797 5.27887C32.8851 7.25538 32.8535 9.42412 32.1797 11.4129Z" fill="#E07153"/>
<g opacity="0.3">
<path opacity="0.3" d="M10.5718 54.8813L14.4663 54.8763L14.4128 56.6607C13.1722 56.6829 11.9146 56.6607 10.6667 56.6114L10.5718 54.8813Z" fill="#1B1B1B"/>
</g>
<g opacity="0.3">
<path opacity="0.3" d="M22.7611 54.2703L22.7246 55.463C21.591 55.8647 20.3261 56.1456 18.981 56.3354L18.8642 54.2752L22.7611 54.2703Z" fill="#1B1B1B"/>
</g>
<g opacity="0.55">
<path opacity="0.55" d="M29.375 1.62161C27.4071 0.840372 24.78 0.788618 21.4475 1.64626C20.6107 1.87052 19.7788 2.08986 18.9639 2.31167C18.9615 2.31167 18.9591 2.31413 18.9566 2.31413C12.6394 4.02201 7.13225 5.86791 5.19841 12.3174C1.47426 24.7433 2.02644 37.879 4.36407 50.5095C4.7557 52.2321 5.52194 53.3436 6.6117 54.0583C4.92597 53.4151 3.76567 52.2075 3.25242 49.9451C0.917219 37.3146 0.362609 24.179 4.08676 11.7531C6.0206 5.30108 11.5253 3.45765 17.845 1.74976C17.8474 1.74976 17.8498 1.7473 17.8523 1.7473C18.6672 1.5255 19.4991 1.30862 20.3358 1.08189C24.3422 0.051739 27.3268 0.33269 29.375 1.62161Z" fill="white"/>
</g>
<g opacity="0.75">
<g opacity="0.75">
<path opacity="0.75" d="M32.6954 7.23071C29.6645 10.405 25.7287 10.4074 23.4275 9.61633C23.1211 9.51035 22.8413 9.33784 22.5859 9.13575C18.295 5.73724 7.48498 9.35509 3.56866 13.5817L2.98486 15.9796C8.42879 9.2713 18.9591 7.0237 22.0727 9.65083C23.0335 10.4616 24.2278 10.9422 25.4684 11.0901C28.3339 11.4326 31.8099 10.9447 32.6978 9.08646" fill="white"/>
</g>
<g opacity="0.75">
<path opacity="0.75" d="M30.0173 19.2697C27.1202 22.0545 20.8054 21.9239 19.3483 20.9701C13.5541 16.8668 5.56333 22.9664 1.58133 25.7808L1.44025 28.472C3.78031 24.1222 14.0844 18.3233 18.115 21.224C19.3532 22.1161 20.7567 22.7446 22.2625 22.9491C25.1377 23.341 28.4726 22.9417 29.5794 21.5" fill="white"/>
</g>
<g opacity="0.75">
<path opacity="0.75" d="M28.6283 36.7305C24.5928 37.3762 22.5373 35.9098 20.494 34.1009C18.9688 32.7503 17.0447 33.2876 17.0447 33.2876L5.94769 36.7354C2.80004 37.6473 1.53027 36.0257 1.53027 36.0257L1.81731 39.8284C1.81731 39.8284 2.31111 38.537 5.522 37.842L15.955 34.3695C18.0713 33.6647 20.421 34.3128 21.8343 36.0552C21.8757 36.107 21.9195 36.1612 21.9608 36.2154C23.9847 38.85 28.6307 38.3201 28.6307 38.3201" fill="white"/>
</g>
<g opacity="0.75">
<path opacity="0.75" d="M29.4286 44.3481C28.2172 46.4602 24.6658 46.3591 21.3162 44.9987C20.73 44.7597 20.1754 44.4492 19.6354 44.1189C16.4026 42.1375 12.2041 45.1096 8.22451 46.9531C5.75066 48.343 3.85818 47.9512 2.54706 45.7751C2.81707 48.0177 3.216 49.9671 3.79007 51.5247C3.89953 49.3904 5.94526 49.0553 9.12454 47.3646C13.1892 45.3561 17.3707 42.8177 20.4381 45.2033C21.09 45.711 21.7906 46.157 22.5471 46.4774C25.0598 47.5445 27.468 47.791 29.6889 46.5933" fill="white"/>
</g>
</g>
<path d="M15.1377 55.3349C13.3619 55.3349 11.5497 55.2561 9.77399 55.1476C6.69932 54.8938 3.73654 54.1027 2.81219 50.0462C2.80975 50.0412 2.80975 50.0339 2.80732 50.0289C0.0683285 35.2223 0.345633 22.6584 3.65383 11.62C5.792 4.48781 12.2187 2.775 19.0248 0.961145C19.4213 0.855172 19.8178 0.749199 20.2167 0.643227C23.4957 -0.199625 26.2298 -0.211947 28.351 0.60626C30.3894 1.39243 31.8197 2.91301 32.6054 5.12611C33.3254 7.15192 33.3254 9.43895 32.6054 11.5633C28.9251 22.4366 28.0566 33.7486 30.0245 45.1838C30.0245 45.1887 30.027 45.1912 30.027 45.1961C30.4113 47.8898 29.8591 50.0782 28.385 51.7023C25.7604 54.5931 20.6205 55.3349 15.1377 55.3349ZM3.69032 49.8515C4.44439 53.1465 6.60202 53.9746 9.83724 54.2407C16.4585 54.6449 24.4833 54.6523 27.7234 51.0837C29.0223 49.6519 29.4845 47.7715 29.1391 45.3316C27.1469 33.7436 28.0275 22.2838 31.7565 11.2651C32.4084 9.33544 32.4108 7.26528 31.7613 5.43171C30.3091 1.3456 26.3953 -0.00739565 20.4429 1.52305C20.0464 1.62902 19.6499 1.73499 19.2534 1.84096C12.4133 3.66468 6.50715 5.23948 4.51493 11.8837C1.25052 22.7792 0.980515 35.1977 3.69032 49.8515Z" fill="#1B1B1B"/>
<path d="M17.8429 1.74765C17.8458 1.74765 17.8487 1.74487 17.8515 1.74487C17.8458 1.74765 17.8429 1.75042 17.8429 1.74765C17.84 1.75042 17.84 1.75042 17.8429 1.74765Z" fill="black"/>
<path d="M17.8402 1.81387H17.6918L17.8134 1.68325L17.8499 1.68079H18.1102L17.8645 1.8114L17.8402 1.81387Z" fill="#1B1B1B"/>
<g opacity="0.3">
<path opacity="0.3" d="M28.295 45.2601C26.2882 33.5883 27.2053 22.3133 30.8954 11.413C31.5692 9.42659 31.5984 7.25539 30.8978 5.27888C29.8835 2.42008 27.6674 0.65798 24.1209 0.473145C22.9776 0.529828 21.7175 0.726986 20.3335 1.08187C19.9516 1.18538 19.5721 1.28642 19.195 1.385C19.414 1.385 19.6232 1.39239 19.8202 1.41211C19.8178 1.41211 19.8153 1.41211 19.8129 1.41211C24.0552 1.05723 24.8579 3.91109 22.89 9.35019C19.0661 21.7219 17.9374 34.4534 19.1123 47.4929C19.7205 53.314 15.5876 54.6128 10.2021 54.7188C11.6008 54.8001 13.036 54.8617 14.4638 54.8765C22.2649 54.7878 29.4091 53.0528 28.295 45.2601Z" fill="#1B1B1B"/>
</g>
<path d="M31.737 56.3133C31.394 56.3133 30.8321 56.1629 30.3456 55.3349C29.8202 55.7686 29.2023 55.8475 28.7304 55.6971C28.3485 55.5764 28.0615 55.3176 27.9033 54.9726C27.2271 55.2659 26.4147 55.2289 25.9063 54.8247C25.6265 54.6029 25.0549 53.9449 25.7725 52.6486C25.8941 52.4292 26.169 52.3504 26.3855 52.4736C26.602 52.5968 26.6798 52.8753 26.5582 53.0946C26.4025 53.3756 26.1811 53.8833 26.4633 54.1075C26.7625 54.3466 27.4898 54.2998 27.9082 53.9055C28.042 53.7798 28.2366 53.7477 28.402 53.8241C28.5674 53.9005 28.672 54.0706 28.6647 54.2554C28.6526 54.5512 28.7742 54.7532 29.0028 54.8272C29.2972 54.9208 29.7618 54.7877 30.0829 54.2751C30.1753 54.1297 30.3383 54.0509 30.5061 54.0681C30.674 54.0854 30.8199 54.1963 30.8807 54.3565C31.1337 55.0194 31.4572 55.4113 31.7491 55.4014C32.0216 55.3915 32.3281 55.044 32.474 54.5733C32.5202 54.4279 32.6346 54.3146 32.7805 54.2727C32.9265 54.2308 33.0821 54.2653 33.1965 54.3663C33.6951 54.8025 34.1524 54.9948 34.5611 54.943C35.0135 54.8839 35.4684 54.5166 35.9136 53.8537C35.9914 53.7379 36.1179 53.6639 36.2541 53.6565C36.3928 53.6467 36.5266 53.7034 36.619 53.8069C36.9644 54.1963 37.665 54.3565 38.3217 54.1963C38.6355 54.1199 39.3896 53.8512 39.6183 52.9936C39.6572 52.8457 39.7691 52.7274 39.9126 52.6782C40.0561 52.6313 40.2142 52.6609 40.3334 52.757C40.9975 53.2967 41.664 53.4816 42.0775 53.2351C42.4132 53.0355 42.5421 52.5525 42.4351 51.9092C42.4035 51.7269 42.4838 51.5445 42.6394 51.4484C42.7927 51.3498 42.9897 51.3547 43.1381 51.4632C43.5589 51.7638 43.9627 51.611 44.2035 51.3695C44.6098 50.9555 44.7314 50.125 44.0868 49.2057C44.0041 49.0874 43.9822 48.9371 44.026 48.7991C44.0697 48.6611 44.1768 48.5526 44.313 48.5083C44.9454 48.2988 45.3274 48.0154 45.449 47.6679C45.5803 47.2883 45.432 46.7609 45.0087 46.098C44.943 45.9945 44.9211 45.8688 44.9479 45.748C44.9746 45.6273 45.0476 45.5238 45.1522 45.4597C45.646 45.1541 45.916 44.8386 45.9598 44.5207C46.006 44.1757 45.7993 43.7543 45.3468 43.2639C45.2568 43.1677 45.213 43.0347 45.2276 42.9016C45.2422 42.7685 45.3128 42.6502 45.4222 42.5763C46.1009 42.108 46.4682 41.6521 46.4852 41.2578C46.4998 40.9275 46.2712 40.5653 45.809 40.1833C45.6825 40.0798 45.6217 39.9146 45.6509 39.752C45.6801 39.5893 45.792 39.4562 45.9452 39.3996C46.5752 39.1753 46.9669 38.7489 46.962 38.2905C46.9596 37.8519 46.6044 37.4699 46.0133 37.2678C45.8455 37.2111 45.7287 37.0608 45.7093 36.8833C45.6898 36.7059 45.7774 36.5334 45.9282 36.4446C46.3539 36.1908 46.8696 35.799 46.8987 35.3751C46.9279 34.9487 46.4633 34.4854 46.0717 34.1699C45.9695 34.0886 45.9087 33.9678 45.9014 33.8348C45.8941 33.7042 45.9452 33.576 46.0376 33.4848C46.5996 32.9328 46.8647 32.4448 46.8282 32.0332C46.7966 31.6759 46.5193 31.3161 46.0036 30.9686C45.8698 30.8774 45.7944 30.7221 45.8041 30.557C45.8163 30.3944 45.9112 30.249 46.0571 30.1775C46.9815 29.7265 47.4947 29.2558 47.4996 28.8516C47.5044 28.3833 46.8306 27.9274 46.5947 27.8042C46.4268 27.7155 46.3295 27.5306 46.3539 27.3409C46.3782 27.1511 46.5168 26.9958 46.7017 26.954C47.2977 26.8209 47.6674 26.5325 47.7453 26.1407C47.8499 25.6256 47.4753 24.975 46.7941 24.4845C46.6482 24.381 46.5777 24.1987 46.6141 24.0212C46.6506 23.8438 46.7869 23.7058 46.962 23.6688C47.6504 23.5209 48.0688 23.1833 48.115 22.7397C48.1588 22.2887 47.8134 21.6627 46.9401 21.2783C46.7674 21.2019 46.6604 21.0269 46.6701 20.8371C46.6798 20.6474 46.8063 20.4847 46.9839 20.4256C48.0591 20.083 48.458 19.6123 48.475 19.287C48.4945 18.9099 48.0518 18.4885 47.2928 18.1558C47.1152 18.0794 47.0082 17.8945 47.0228 17.6998C47.0374 17.5052 47.1736 17.3425 47.3609 17.2957C48.0761 17.1133 48.3996 16.7584 48.402 16.4849C48.4045 16.2039 48.0931 15.9353 47.609 15.8022C47.4144 15.748 47.2807 15.573 47.2782 15.3709C47.2758 15.1688 47.4047 14.9865 47.5969 14.9273C48.5018 14.6464 49.0515 14.2323 49.1026 13.7887C49.1512 13.3846 48.7718 12.899 48.0882 12.4899C47.9812 12.4259 47.9034 12.3174 47.8766 12.1917C47.8499 12.0661 47.8766 11.9379 47.9496 11.8344C48.368 11.2355 48.3777 10.4321 47.9739 9.84063C47.5725 9.25409 46.9012 9.03722 46.1301 9.24177C45.9525 9.28859 45.7628 9.22205 45.6533 9.07172C45.5438 8.92138 45.5365 8.7193 45.6338 8.55911C45.8576 8.19929 45.9014 7.87152 45.7506 7.70886C45.5876 7.53388 45.1619 7.47967 44.6098 7.7828C44.4298 7.87891 44.2108 7.84441 44.0697 7.69408C43.9311 7.54374 43.9068 7.31947 44.0114 7.1445C44.33 6.61463 44.1208 6.11681 44.0162 5.92705C43.8143 5.5623 43.4689 5.31586 43.1576 5.31586C42.9119 5.31586 42.7003 5.47358 42.5275 5.78411C42.4302 5.95662 42.2356 6.04781 42.0435 6.00591C41.8513 5.96401 41.7078 5.80382 41.6883 5.6042C41.6081 4.76874 41.2553 4.20684 40.6715 3.98011C39.9321 3.69423 38.9883 3.98997 38.5018 4.44097C38.3874 4.54694 38.2293 4.58637 38.0785 4.54448C37.9301 4.50258 37.8109 4.38675 37.7671 4.23642C37.5652 3.55622 37.0277 3.40589 36.726 3.37631C36.1374 3.31717 35.5341 3.60551 35.2957 4.05897C35.2276 4.18713 35.1035 4.27585 34.96 4.29556C34.8165 4.31528 34.673 4.26353 34.5733 4.15755C34.1524 3.71148 33.717 3.5094 33.2767 3.55376C32.8292 3.60058 32.3816 3.92096 32.08 4.40893C31.9486 4.62334 31.6713 4.68742 31.4597 4.55433C31.248 4.42125 31.1848 4.1403 31.3161 3.92589C31.7686 3.18901 32.4497 2.72323 33.1843 2.64683C33.6027 2.60247 34.2011 2.67147 34.836 3.17176C35.32 2.67147 36.0644 2.39545 36.8136 2.46939C37.4825 2.53593 38.0371 2.87849 38.3753 3.41328C39.0977 2.98693 40.0999 2.78238 40.9926 3.1274C41.6543 3.38371 42.1359 3.90371 42.3913 4.62334C42.6224 4.47794 42.8803 4.404 43.1576 4.404C43.1576 4.404 43.1576 4.404 43.16 4.404C43.7949 4.404 44.4395 4.82789 44.8019 5.48098C45.0111 5.85804 45.1011 6.27207 45.0768 6.67378C45.6071 6.60231 46.0887 6.74032 46.4074 7.08535C46.6944 7.39587 46.7966 7.80498 46.7139 8.25351C47.5288 8.26337 48.2439 8.63551 48.711 9.32063C49.2412 10.0969 49.3094 11.1049 48.9177 11.9502C49.6961 12.522 50.0756 13.1997 49.9953 13.8947C49.9515 14.2718 49.7253 14.8977 48.7937 15.4079C49.1221 15.6987 49.3069 16.0758 49.3021 16.4898C49.2972 16.9161 49.071 17.4189 48.4969 17.791C49.2777 18.3628 49.3896 18.9715 49.3726 19.3289C49.341 19.9573 48.8934 20.5167 48.1126 20.9332C48.7377 21.4483 49.0758 22.1334 49.0077 22.826C48.9469 23.447 48.5577 23.9596 47.9301 24.2825C48.4993 24.9084 48.762 25.6453 48.6258 26.3181C48.5261 26.8184 48.2147 27.2324 47.738 27.5134C48.0785 27.8338 48.402 28.2872 48.3972 28.8541C48.3899 29.5071 47.9423 30.1134 47.0593 30.6556C47.4582 31.0499 47.6796 31.4812 47.7209 31.942C47.7745 32.5286 47.5312 33.1398 46.996 33.7682C47.5701 34.3203 47.8304 34.8674 47.7939 35.4268C47.7623 35.9123 47.5093 36.3535 47.0252 36.7675C47.5482 37.1446 47.8547 37.6818 47.8572 38.2758C47.862 38.9387 47.4923 39.5425 46.8623 39.9467C47.2247 40.378 47.3998 40.8289 47.378 41.2873C47.3512 41.8936 47.0058 42.4629 46.3222 43.0199C46.7382 43.5793 46.9133 44.119 46.8452 44.6316C46.7796 45.1245 46.4901 45.5755 45.9841 45.9723C46.3879 46.7264 46.4925 47.3918 46.2955 47.9587C46.1228 48.4565 45.7263 48.8582 45.1109 49.1539C45.6995 50.3246 45.432 51.3991 44.8384 52.0029C44.4249 52.4218 43.8873 52.5968 43.3643 52.513C43.3205 53.1883 43.0311 53.7182 42.5324 54.0164C41.9024 54.391 41.0778 54.3072 40.2532 53.8044C39.9029 54.4329 39.2923 54.8913 38.5309 55.0761C37.7428 55.2659 36.945 55.1426 36.3612 54.7606C35.843 55.3989 35.2787 55.7612 34.6779 55.8401C34.1573 55.9091 33.6222 55.7661 33.0821 55.4137C32.7659 55.9559 32.2891 56.2911 31.7783 56.3083C31.7613 56.3133 31.7491 56.3133 31.737 56.3133Z" fill="#1B1B1B"/>
<path d="M34.7046 29.5687L33.5176 32.6493L25.5122 30.9143L22.637 30.2908C21.4646 31.3973 19.9369 31.0375 18.9494 30.4386C18.6988 30.2908 18.4799 30.1404 18.2926 29.9926C16.0717 28.2305 18.1272 26.5152 20.1753 27.5774C20.3553 27.671 20.5353 27.7869 20.7153 27.9249C19.7423 25.5615 22.9095 25.4629 23.0968 27.9569L25.6898 28.3167L34.7046 29.5687Z" fill="white"/>
<path d="M34.6827 29.7191C33.6781 29.8694 32.7075 29.7585 31.737 29.6476C30.7664 29.5318 29.8056 29.3518 28.8399 29.2163L23.0384 28.4104C22.8292 28.3808 22.6735 28.2108 22.6516 28.0038V27.9914C22.6346 27.814 22.6054 27.639 22.5519 27.4788C22.4959 27.3186 22.4229 27.1708 22.3281 27.0451C22.1408 26.7888 21.861 26.6163 21.5837 26.5818C21.4451 26.562 21.3186 26.5867 21.2237 26.6335C21.1264 26.6803 21.0705 26.7518 21.0267 26.8529C20.9829 26.9539 20.9732 27.0968 20.9951 27.2546C21.017 27.4123 21.0705 27.5823 21.1362 27.7499L21.1386 27.7524C21.2286 27.9865 21.1167 28.2527 20.8832 28.3439C20.7324 28.403 20.5694 28.3759 20.4478 28.2847C20.134 28.0457 19.7837 27.8559 19.4164 27.7696C19.0515 27.676 18.6696 27.6834 18.351 27.7992C18.1928 27.8559 18.0542 27.9446 17.9593 28.0481C17.8645 28.1516 17.8109 28.2675 17.7963 28.3932C17.7647 28.6445 17.9155 28.9772 18.1782 29.2582C18.4361 29.5441 18.7669 29.793 19.1318 30.0123C19.3118 30.1208 19.4845 30.2169 19.6718 30.2933C19.8567 30.3697 20.0464 30.4362 20.2386 30.4781C20.6205 30.5693 21.0097 30.5718 21.3721 30.4929C21.7297 30.4017 22.0605 30.2218 22.3402 29.9581L22.3427 29.9556C22.4546 29.8521 22.6054 29.8152 22.7416 29.8447L28.1807 31.0252L29.5404 31.321C29.9929 31.422 30.4477 31.5157 30.9051 31.597C31.3624 31.6759 31.8172 31.772 32.2624 31.9075C32.4862 31.9741 32.7051 32.0529 32.9216 32.149C33.1381 32.2451 33.3521 32.3536 33.5589 32.5039C33.6319 32.5581 33.6489 32.6616 33.5978 32.7356C33.5735 32.7701 33.537 32.7923 33.4981 32.8021C33.25 32.8539 33.0116 32.8637 32.7732 32.8613C32.5373 32.8588 32.3037 32.8391 32.0726 32.807C31.6105 32.7454 31.158 32.6444 30.7105 32.5286C30.2604 32.4127 29.808 32.3117 29.3556 32.2131L27.9958 31.9174L22.5567 30.7369L22.9581 30.6235C22.5786 30.9809 22.0994 31.252 21.5837 31.3776C21.068 31.4959 20.5378 31.4836 20.0464 31.3653C19.555 31.2544 19.088 31.0474 18.6745 30.7911C18.2682 30.5471 17.8645 30.2538 17.5166 29.8669C17.3415 29.6747 17.1809 29.4529 17.0642 29.1867C16.945 28.9255 16.872 28.61 16.9109 28.2847C16.945 27.9594 17.1007 27.644 17.3147 27.4197C17.5288 27.1905 17.7866 27.0377 18.0493 26.9416C18.3145 26.8455 18.5845 26.8011 18.852 26.7937C19.1196 26.7888 19.3848 26.8159 19.6353 26.8824C20.1437 27.0057 20.6034 27.2546 21.0048 27.5602L20.3164 28.0974C20.2288 27.8707 20.151 27.6316 20.1145 27.3679C20.0829 27.1042 20.0853 26.8085 20.2021 26.5128C20.314 26.2195 20.5499 25.9484 20.837 25.8128C21.1191 25.6724 21.4256 25.6354 21.7029 25.6724C22.2648 25.7414 22.744 26.0667 23.0578 26.4906C23.2159 26.7025 23.3327 26.9391 23.4154 27.1806C23.4957 27.4246 23.537 27.6711 23.5614 27.9175L23.1746 27.501L28.9761 28.3044C29.9442 28.4375 30.9172 28.5238 31.8805 28.6766C32.8437 28.8343 33.807 28.9945 34.7362 29.411C34.8141 29.4455 34.8506 29.5391 34.8165 29.6205C34.78 29.6772 34.7338 29.7117 34.6827 29.7191Z" fill="#1B1B1B"/>
<path d="M21.4938 14.538C21.2335 14.538 20.9757 14.4961 20.7251 14.4073C19.7545 14.0598 19.1756 13.1283 19.1756 11.9158C19.1756 11.6274 19.4067 11.3958 19.6889 11.3958C19.9735 11.3958 20.2021 11.6299 20.2021 11.9158C20.2021 12.6797 20.5159 13.2318 21.0657 13.4265C21.647 13.6335 22.3379 13.392 22.7879 12.8251C22.9654 12.6009 23.289 12.5664 23.5103 12.7463C23.7317 12.9262 23.7657 13.254 23.5882 13.4782C23.0506 14.1584 22.2697 14.538 21.4938 14.538Z" fill="#1B1B1B"/>
<path d="M28.5115 15.472C28.2731 15.472 28.042 15.4326 27.828 15.3586C27.0399 15.0826 26.3563 14.2718 26.6044 13.0765C26.6628 12.7956 26.9353 12.6157 27.2126 12.6748C27.4899 12.734 27.6674 13.01 27.6091 13.2909C27.4485 14.0623 27.991 14.3162 28.1612 14.3753C28.6258 14.538 29.285 14.3852 29.6305 13.6705C29.7545 13.4117 30.0634 13.3057 30.3189 13.4314C30.5743 13.5571 30.6789 13.8701 30.5548 14.1289C30.1024 15.0654 29.2777 15.472 28.5115 15.472Z" fill="#1B1B1B"/>
<path d="M25.1668 18.9395C25.0112 18.9395 24.853 18.9247 24.6949 18.8951C23.7511 18.7152 23.0749 18.0424 22.9289 17.1404C22.8876 16.8915 23.0554 16.6574 23.2987 16.6179C23.5444 16.576 23.7754 16.7461 23.8144 16.9925C23.9409 17.7664 24.6463 17.9586 24.8603 18.0005C25.3006 18.0843 25.9258 17.9956 26.2396 17.4632C26.3661 17.2464 26.6434 17.1774 26.855 17.3055C27.0691 17.4337 27.1372 17.7146 27.0107 17.929C26.6361 18.5698 25.9404 18.9395 25.1668 18.9395Z" fill="#1B1B1B"/>
<path d="M42.2965 21.4655C41.7297 21.4655 41.1678 21.2536 40.7615 20.8618C40.2118 20.3368 40.0123 19.5605 40.2094 18.7374C40.2775 18.4589 40.5548 18.2864 40.8296 18.3554C41.1045 18.4244 41.2748 18.7054 41.2067 18.9838C41.0948 19.4496 41.1848 19.8365 41.467 20.1076C41.7637 20.3935 42.2405 20.4995 42.6516 20.3738C42.9484 20.2826 43.3351 20.0362 43.4835 19.3806C43.5468 19.0997 43.8241 18.9247 44.099 18.9888C44.3763 19.0529 44.549 19.3313 44.4857 19.6123C44.2863 20.4921 43.7268 21.1328 42.9508 21.3694C42.7343 21.4335 42.5154 21.4655 42.2965 21.4655Z" fill="#1B1B1B"/>
<path d="M34.347 19.6714C33.7803 19.6714 33.2184 19.4595 32.8121 19.0676C32.2624 18.5427 32.0629 17.7664 32.2599 16.9432C32.3281 16.6647 32.6054 16.4922 32.8802 16.5612C33.1551 16.6302 33.3254 16.9112 33.2573 17.1897C33.1454 17.6555 33.2354 18.0424 33.5176 18.3135C33.8143 18.5994 34.2911 18.7053 34.7022 18.5796C34.999 18.4885 35.3857 18.242 35.5341 17.5865C35.5974 17.3055 35.8722 17.1305 36.1495 17.1946C36.4268 17.2587 36.5996 17.5372 36.5363 17.8181C36.3368 18.6979 35.7774 19.3387 35.0014 19.5753C34.7849 19.6394 34.566 19.6714 34.347 19.6714Z" fill="#1B1B1B"/>
<path d="M37.6285 23.6022C37.4777 23.6022 37.3245 23.5874 37.1712 23.5603C36.4609 23.4297 35.8626 22.9984 35.5755 22.4094C35.4515 22.1581 35.5536 21.8525 35.8042 21.7268C36.0523 21.6011 36.3539 21.7046 36.478 21.9584C36.6263 22.2616 36.9523 22.4858 37.3537 22.5598C37.811 22.6436 38.2634 22.5154 38.5942 22.2024C38.7961 22.0102 39.1148 22.0225 39.3045 22.2271C39.4942 22.4316 39.4821 22.7545 39.2802 22.9467C38.8253 23.3755 38.2415 23.6022 37.6285 23.6022Z" fill="#1B1B1B"/>
<path d="M14.476 58.4722C14.4079 58.5264 14.3057 58.5609 14.1987 58.5954C14.0892 58.6299 13.9676 58.6546 13.846 58.6842C13.5954 58.7384 13.34 58.8 13.0481 58.8394C13.0141 58.8443 12.9824 58.8197 12.9776 58.7852C12.9751 58.7729 12.9776 58.7606 12.9824 58.7507C13.0457 58.6102 13.1308 58.487 13.2208 58.3737C13.3133 58.2603 13.4154 58.1568 13.5249 58.0607C13.6344 57.967 13.7511 57.8758 13.8873 57.8093C14.0236 57.7452 14.1719 57.691 14.3641 57.7009C14.5757 57.7107 14.7387 57.8931 14.729 58.1075C14.7241 58.2258 14.6657 58.3293 14.5806 58.3958L14.476 58.4722Z" fill="#1B1B1B"/>
<path d="M16.1836 61.4615H11.9292C11.1216 61.4615 10.4526 60.8208 10.4064 60.005L10.1218 54.9061C10.1072 54.6547 10.297 54.4403 10.5451 54.4255C10.7932 54.4107 11.0048 54.6029 11.0194 54.8543L11.304 59.9533C11.3235 60.2885 11.5959 60.5497 11.9292 60.5497H16.1836C16.3271 60.5497 16.4633 60.4881 16.5582 60.3772C16.6482 60.2737 16.6871 60.1406 16.6701 60.0075C16.5996 59.4703 16.3295 59.002 15.933 58.7235C15.5657 58.4648 15.1182 58.3859 14.6414 58.4968C14.4006 58.5535 14.1573 58.4007 14.1038 58.1542C14.0479 57.9078 14.2011 57.6638 14.4419 57.6096C15.1619 57.442 15.8747 57.5726 16.4463 57.9743C17.052 58.3982 17.4582 59.0957 17.5628 59.8868C17.6139 60.2786 17.4971 60.6754 17.2369 60.9785C16.9693 61.2841 16.5874 61.4615 16.1836 61.4615Z" fill="#1B1B1B"/>
<path d="M14.369 58.5559C14.3641 58.5559 14.3592 58.5559 14.3544 58.5559C14.1063 58.5485 13.9117 58.339 13.919 58.0877L14.0163 54.8641C14.0236 54.6127 14.2328 54.4155 14.4784 54.4229C14.7265 54.4303 14.9211 54.6398 14.9138 54.8912L14.8165 58.1148C14.8117 58.3612 14.6122 58.5559 14.369 58.5559Z" fill="#1B1B1B"/>
<g opacity="0.25">
<path opacity="0.25" d="M12.0095 6.90046C8.73289 8.78086 7.40231 11.8886 7.27339 15.7553C7.23447 16.9062 8.61856 17.4903 9.40912 16.6647C11.4743 14.5009 12.9727 11.7382 13.7365 8.19431C13.9506 7.18881 12.8925 6.39278 12.0095 6.90046Z" fill="white"/>
</g>
<g opacity="0.25">
<path opacity="0.25" d="M8.91527 21.68C8.72554 23.2425 8.47256 24.4969 7.46551 24.3712C6.45845 24.2455 5.79682 22.8777 5.98655 21.3152C6.17629 19.7528 7.14685 18.5871 8.1539 18.7128C9.16095 18.8385 9.105 20.1175 8.91527 21.68Z" fill="white"/>
</g>
<g opacity="0.3">
<path opacity="0.3" d="M25.5123 30.9119L22.637 30.2883C21.4646 31.3949 19.937 31.0351 18.9494 30.4362C18.6988 30.2883 18.4799 30.138 18.2926 29.9901C19.9832 30.313 20.7738 29.7462 20.1291 27.7598L20.1754 27.575C20.3554 27.6686 20.5354 27.7844 20.7154 27.9224C19.7424 25.559 22.9095 25.4604 23.0968 27.9545L25.6898 28.3143C24.2303 29.2335 24.2863 30.0936 25.5123 30.9119Z" fill="black"/>
<path opacity="0.3" d="M20.8394 31.0696C20.1485 31.0696 19.4674 30.8281 18.9153 30.4929C18.6696 30.3475 18.4458 30.1972 18.2536 30.0444L18.0444 29.8792L18.3047 29.9285C19.1804 30.0961 19.7715 30.0099 20.061 29.6747C20.3602 29.3272 20.3626 28.6914 20.0683 27.782L20.0634 27.7647L20.1364 27.4838L20.2069 27.5207C20.3334 27.5873 20.4599 27.6612 20.5815 27.745C20.3237 26.9662 20.5596 26.5473 20.7323 26.36C21.0169 26.0544 21.4864 25.9706 21.9559 26.1406C22.6297 26.3846 23.0773 27.0402 23.1575 27.9027L25.877 28.2798L25.7262 28.3759C25.0232 28.8146 24.6657 29.2533 24.6584 29.6722C24.6535 30.0616 24.9527 30.4633 25.5487 30.8601L25.8333 31.0499L22.6564 30.3623C22.1043 30.87 21.4669 31.0696 20.8394 31.0696ZM18.548 30.101C18.6817 30.1972 18.8277 30.2908 18.9834 30.382C20.0026 31.0006 21.4864 31.2889 22.5956 30.2415L22.6199 30.2193L25.2251 30.7837C24.7605 30.4165 24.527 30.0444 24.5319 29.6698C24.5392 29.2336 24.8676 28.7949 25.5122 28.3587L23.0408 28.0161L23.0359 27.9643C22.9727 27.1289 22.5543 26.4931 21.9145 26.2639C21.4986 26.1135 21.0729 26.1875 20.8272 26.4512C20.5377 26.7617 20.5183 27.2768 20.7761 27.9027L20.8686 28.1295L20.6764 27.9791C20.5304 27.8658 20.3748 27.7623 20.2191 27.676L20.1972 27.7623C20.5061 28.7234 20.4939 29.3765 20.1583 29.7634C19.8639 30.101 19.3337 30.2144 18.548 30.101Z" fill="#1B1B1B"/>
</g>
<g opacity="0.3">
<path opacity="0.3" d="M35.1766 32.2871C34.8068 32.5705 34.33 32.6715 33.8776 32.568L30.837 31.8829L29.5648 31.597C30.9197 31.1213 31.3745 30.2908 30.9294 29.1029L31.6494 29.1768L31.5618 29.3173L31.9462 29.3592L31.9875 29.4874C31.9997 29.4652 31.9875 29.4184 31.9608 29.3617L34.5028 29.6426L34.3738 29.4553L34.8238 29.5022C36.3977 30.3697 36.0571 31.6118 35.1766 32.2871Z" fill="#1B1B1B"/>
</g>
<g opacity="0.3">
<path opacity="0.3" d="M39.5453 54.009L39.1147 59.9779C39.0734 60.557 38.5966 61.0056 38.025 61.0056H32.7951C32.1359 61.0056 31.6324 60.3993 31.7516 59.7438C31.7905 59.5392 31.8537 59.3445 31.9413 59.1597C32.2064 59.0192 32.3962 58.9207 32.3962 58.9207C36.1033 60.0173 37.6601 58.5608 37.1225 54.6153C37.9179 54.8469 38.9226 54.6572 39.5453 54.009Z" fill="#1B1B1B"/>
</g>
<path d="M36.9036 39.4414C37.1469 39.7446 37.2904 40.1512 37.2515 40.5973C37.232 40.8191 37.1639 41.0434 37.0471 41.2479C36.9304 41.45 36.7674 41.6275 36.5752 41.7556C36.1933 42.0193 35.7263 42.1031 35.3079 42.0243C34.8895 41.9479 34.5101 41.7088 34.2984 41.3712C34.2595 41.3071 34.2766 41.2233 34.3398 41.1814C34.3739 41.1592 34.4152 41.1543 34.4517 41.1666L34.459 41.1691C34.7874 41.2726 35.0841 41.3046 35.3566 41.2726C35.629 41.243 35.8723 41.1494 36.062 41.0113C36.2517 40.8709 36.3879 40.691 36.4877 40.4445C36.5363 40.3213 36.5728 40.1808 36.5996 40.028C36.6263 39.8727 36.6385 39.7076 36.6579 39.5252V39.5154C36.6677 39.439 36.7358 39.3848 36.8112 39.3922C36.8501 39.3946 36.8817 39.4143 36.9036 39.4414Z" fill="#1B1B1B"/>
<g opacity="0.6">
<g opacity="0.6">
<path opacity="0.6" d="M38.5139 47.3056C38.565 47.6926 38.4799 48.1164 38.2172 48.4763C38.0882 48.6562 37.9131 48.8139 37.7088 48.9248C37.5044 49.0357 37.2733 49.1022 37.0447 49.1121C36.5849 49.1367 36.1422 48.9618 35.8236 48.6759C35.5049 48.39 35.303 47.9858 35.2957 47.5866C35.2933 47.5102 35.3541 47.4486 35.4295 47.4461C35.4709 47.4461 35.5074 47.4634 35.5341 47.4905L35.539 47.4954C35.7676 47.7566 36.0036 47.939 36.2541 48.0548C36.5022 48.1707 36.7577 48.22 36.9912 48.2027C37.2247 48.183 37.4339 48.0992 37.6455 47.9415C37.7501 47.8601 37.8523 47.7616 37.9544 47.6433C38.0566 47.525 38.1515 47.3894 38.2634 47.244L38.2682 47.2366C38.3145 47.175 38.402 47.1652 38.4604 47.212C38.4896 47.2391 38.5091 47.2711 38.5139 47.3056Z" fill="#1B1B1B"/>
</g>
</g>
<g opacity="0.6">
<g opacity="0.6">
<path opacity="0.6" d="M41.3332 9.70506C41.6737 9.8899 41.9608 10.2078 42.0946 10.6342C42.1627 10.8461 42.1846 11.0802 42.1554 11.3144C42.1238 11.546 42.0435 11.7752 41.9146 11.9674C41.664 12.3593 41.2651 12.6205 40.8491 12.7142C40.4332 12.8078 39.9929 12.7364 39.6694 12.5072C39.6086 12.4628 39.594 12.379 39.6353 12.3149C39.6596 12.2804 39.6937 12.2607 39.7326 12.2558H39.7399C40.0829 12.2213 40.3675 12.135 40.6083 11.997C40.8467 11.8615 41.0364 11.6816 41.1605 11.4795C41.2821 11.2749 41.3381 11.0556 41.3356 10.7894C41.3332 10.6563 41.3137 10.5134 41.2797 10.3606C41.2432 10.2078 41.1921 10.0501 41.141 9.87265L41.1386 9.86279C41.1167 9.78886 41.1605 9.71246 41.2335 9.69028C41.2675 9.68289 41.304 9.69028 41.3332 9.70506Z" fill="#1B1B1B"/>
</g>
</g>
<path d="M46.8453 41.6644C45.5025 42.1598 44.1428 42.6059 42.7684 43.0002C30.3091 46.586 16.6263 46.1251 2.18703 43.1579C-1.18927 39.2345 1.39404 35.035 1.39404 35.035C10.1097 36.2303 18.6356 36.9499 26.8453 36.8735C31.0608 36.1736 39.5405 34.6161 43.9822 33.7954C45.7239 33.4725 46.8453 33.2631 46.8453 33.2631C48.6721 36.7035 48.5286 39.4563 46.8453 41.6644Z" fill="#CA2C02"/>
<g opacity="0.55">
<path opacity="0.55" d="M1.39403 35.8138C10.1097 37.009 18.6356 37.7287 26.8453 37.6523C31.0632 36.9524 39.5405 35.3948 43.9822 34.5742C45.7239 34.2513 46.8453 34.0418 46.8453 34.0418C47.6407 35.5402 48.0615 36.908 48.1467 38.1575C48.2488 36.6714 47.8377 35.003 46.8453 33.1324C46.8453 33.1324 45.7239 33.3419 43.9822 33.6648C39.5405 34.4854 31.0632 36.0454 26.8453 36.7429C18.6332 36.8193 10.1072 36.0996 1.39403 34.9044C1.39403 34.9044 0.311565 36.6665 0.464812 38.9732C0.584005 37.1273 1.39403 35.8138 1.39403 35.8138Z" fill="white"/>
</g>
<g opacity="0.55">
<path opacity="0.55" d="M47.0593 33.6845C43.6125 34.3252 33.0457 36.2796 28.171 37.0879C19.9589 37.1643 11.433 36.4447 2.71974 35.2519C2.71974 35.2519 0.136428 39.4513 3.51274 43.3748C5.0671 43.6927 6.61174 43.9835 8.14664 44.2423C6.17389 43.9317 4.18654 43.567 2.18459 43.1579C-1.19172 39.2345 1.3916 35.035 1.3916 35.035C10.1072 36.2303 18.6331 36.9499 26.8428 36.8735C32.7124 35.9 46.8428 33.2631 46.8428 33.2631C46.9207 33.4035 46.9912 33.544 47.0593 33.6845Z" fill="white"/>
</g>
<path d="M23.7073 45.9945C17.0253 45.9945 9.84695 45.1984 2.097 43.6039C1.9997 43.5842 1.91213 43.5325 1.84645 43.4561C-0.00954464 41.2997 -0.138467 39.057 0.0780253 37.5586C0.311545 35.9419 0.982915 34.8403 1.00967 34.7935C1.10211 34.6407 1.27725 34.5593 1.45239 34.584C10.9562 35.8852 19.2486 36.4841 26.8063 36.4175C32.6249 35.4515 46.6215 32.8416 46.7626 32.8145C46.9547 32.7775 47.1469 32.8736 47.2393 33.0462C49.0759 36.5087 49.0637 39.5031 47.198 41.9453C47.1469 42.0143 47.0764 42.0661 46.9961 42.0957C39.9491 44.6957 32.2332 45.9945 23.7073 45.9945ZM2.42782 42.7414C19.7764 46.2853 34.2182 45.8072 46.568 41.2799C48.0907 39.2073 48.1004 36.7453 46.602 33.7658C44.4493 34.1675 32.2308 36.4373 26.9182 37.3171C26.8963 37.322 26.872 37.322 26.8501 37.322C19.3215 37.3935 11.0729 36.8045 1.63726 35.5229C1.17265 36.4422 -0.133602 39.6485 2.42782 42.7414Z" fill="#1B1B1B"/>
<g opacity="0.3">
<path opacity="0.3" d="M18.8642 45.403C21.9729 44.6735 21.6032 36.9868 18.9712 36.8636H26.5411L28.9858 36.5062L36.1738 37.4353C36.1738 37.4353 38.8082 40.2227 40.7639 38.2511C40.7639 38.2511 38.7255 41.7457 35.4149 40.097L32.7999 39.8283C32.7999 39.8283 32.9313 44.4073 30.9537 45.2034L24.3008 45.403H18.8642Z" fill="#1B1B1B"/>
</g>
<g opacity="0.3">
<path opacity="0.3" d="M46.8452 41.6644C45.5025 42.1598 44.1427 42.6059 42.7683 43.0002C45.9719 41.0187 43.9821 33.7929 43.9821 33.7929C45.7238 33.4701 46.8452 33.2606 46.8452 33.2606C48.672 36.7035 48.5285 39.4563 46.8452 41.6644Z" fill="#1B1B1B"/>
</g>
<path d="M36.3004 38.7022L31.4573 37.8716C31.4573 37.8716 31.4573 37.8716 31.4549 37.8716L25.2666 36.8095L25.3955 32.9648L28.0591 33.5415L37.1664 35.5131C38.7475 33.2902 42.3062 33.9975 39.3264 36.9647C42.9411 39.1754 38.4872 42.4803 36.3004 38.7022Z" fill="#E07153"/>
<g opacity="0.55">
<path opacity="0.55" d="M40.4818 35.2839C39.8834 34.8625 38.5601 35.1287 37.6771 36.1662C37.5482 36.3166 37.356 36.3905 37.1663 36.3511L28.3607 34.5224L27.845 34.414C27.8669 34.1823 27.9179 33.9383 28.0079 33.682L28.0688 33.6943L37.1931 35.5895C38.3825 33.889 40.7323 33.8742 40.4818 35.2839Z" fill="white"/>
</g>
<path d="M25.4028 32.8785C26.4439 32.7898 27.429 32.9795 28.4166 33.1594C29.4018 33.3517 30.3748 33.6031 31.3575 33.8051L37.2539 35.03L36.7966 35.2124C37.1518 34.7071 37.6285 34.2882 38.1856 34.0122C38.4653 33.8766 38.7645 33.7731 39.0832 33.7238C39.4018 33.677 39.7448 33.6745 40.1048 33.8027C40.2824 33.8692 40.4673 33.9777 40.6181 34.1428C40.7689 34.3079 40.871 34.5272 40.9051 34.7367C40.9416 34.9462 40.9246 35.1458 40.8856 35.3208C40.8467 35.4958 40.7883 35.6535 40.7202 35.8014C40.584 36.0947 40.4137 36.346 40.2337 36.5802C40.0537 36.8143 39.8591 37.0287 39.6597 37.2308L39.5721 36.5161C39.8932 36.7108 40.207 36.94 40.4843 37.2308C40.7591 37.5216 41.0073 37.8863 41.1167 38.3324C41.1702 38.5542 41.1873 38.7908 41.1581 39.0225C41.1265 39.2541 41.0535 39.4809 40.9416 39.6805C40.7202 40.0822 40.3748 40.3779 39.9953 40.5652C39.2315 40.9472 38.3218 40.8905 37.5993 40.5307C37.2369 40.3533 36.9134 40.1068 36.6409 39.8283C36.3661 39.5499 36.1398 39.2344 35.9452 38.9091L36.2542 39.1235L30.4186 38.0958L28.9591 37.8395C28.4726 37.7533 27.9861 37.667 27.4972 37.6005C27.0082 37.5339 26.5193 37.455 26.0401 37.3318C25.7993 37.2727 25.5609 37.2012 25.3274 37.11C25.0914 37.0188 24.8603 36.9153 24.6341 36.7699C24.5587 36.7206 24.5368 36.6196 24.583 36.5432C24.6073 36.5062 24.6438 36.4816 24.6852 36.4717C24.9455 36.4126 25.1984 36.3929 25.4514 36.3879C25.702 36.383 25.9501 36.3978 26.1958 36.4249C26.6896 36.4742 27.1736 36.5654 27.6577 36.6689C28.1418 36.7724 28.6283 36.8586 29.1123 36.9424L30.5718 37.1987L36.4074 38.2264C36.5412 38.2511 36.6507 38.3324 36.7163 38.4408C37.0399 38.9855 37.468 39.4562 37.991 39.7101C38.5042 39.9664 39.1148 39.991 39.5988 39.747C39.8397 39.6287 40.0416 39.4464 40.1559 39.2344C40.2751 39.0225 40.3043 38.7883 40.2459 38.5517C40.1899 38.3127 40.0391 38.0761 39.8372 37.8617C39.6353 37.6497 39.3848 37.4624 39.1123 37.2998C38.8983 37.1716 38.8302 36.8907 38.9567 36.6738C38.9761 36.6418 39.0005 36.6122 39.0248 36.5851C39.3824 36.2203 39.7156 35.8211 39.9078 35.4145C40.0026 35.2148 40.0464 35.0103 40.0221 34.8944C40.0124 34.8353 39.9929 34.7983 39.9613 34.7614C39.9272 34.7244 39.8737 34.6874 39.8007 34.6603C39.6499 34.6036 39.4359 34.5938 39.2242 34.6258C39.0102 34.6579 38.7913 34.7318 38.5845 34.8328C38.171 35.0349 37.8061 35.3528 37.5385 35.7398C37.4315 35.8926 37.2515 35.9566 37.0812 35.9221L31.1848 34.6973C30.2021 34.4903 29.2096 34.3325 28.2293 34.1181C27.2515 33.8914 26.2712 33.6721 25.3493 33.1742C25.2739 33.1323 25.2447 33.0362 25.2836 32.9598C25.303 32.913 25.3517 32.8834 25.4028 32.8785Z" fill="#1B1B1B"/>
<g opacity="0.3">
<path opacity="0.3" d="M31.4719 37.8838L25.2739 36.8734L25.3736 33.0288L28.042 33.5833C27.2442 35.7545 28.801 37.0311 31.4719 37.8838Z" fill="#1B1B1B"/>
</g>
</svg>
